<?xml version="1.0" encoding="UTF-8" standalone="no"?>
<svg
   xmlns:dc="http://purl.org/dc/elements/1.1/"
   xmlns:cc="http://creativecommons.org/ns#"
   xmlns:rdf="http://www.w3.org/1999/02/22-rdf-syntax-ns#"
   xmlns:svg="http://www.w3.org/2000/svg"
   xmlns="http://www.w3.org/2000/svg"
   xmlns:sodipodi="http://sodipodi.sourceforge.net/DTD/sodipodi-0.dtd"
   xmlns:inkscape="http://www.inkscape.org/namespaces/inkscape"
   width="210mm"
   height="297mm"
   viewBox="0 0 210 297"
   version="1.1"
   id="svg8"
   inkscape:version="1.0.2 (e86c870879, 2021-01-15)"
   sodipodi:docname="Spider_logo.svg">
  <defs
     id="defs2">
    <inkscape:path-effect
       effect="skeletal"
       id="path-effect851"
       is_visible="true"
       lpeversion="1"
       pattern="M 0,5 C 0,2.24 2.24,0 5,0 7.76,0 10,2.24 10,5 10,7.76 7.76,10 5,10 2.24,10 0,7.76 0,5 Z"
       copytype="single_stretched"
       prop_scale="1.43881"
       scale_y_rel="false"
       spacing="0"
       normal_offset="0"
       tang_offset="0"
       prop_units="false"
       vertical_pattern="false"
       hide_knot="false"
       fuse_tolerance="0" />
    <inkscape:path-effect
       effect="skeletal"
       id="path-effect847"
       is_visible="true"
       lpeversion="1"
       pattern="M 0,5 C 0,2.24 2.24,0 5,0 7.76,0 10,2.24 10,5 10,7.76 7.76,10 5,10 2.24,10 0,7.76 0,5 Z"
       copytype="single_stretched"
       prop_scale="1.4388116"
       scale_y_rel="false"
       spacing="0"
       normal_offset="0"
       tang_offset="0"
       prop_units="false"
       vertical_pattern="false"
       hide_knot="false"
       fuse_tolerance="0" />
    <inkscape:path-effect
       effect="skeletal"
       id="path-effect843"
       is_visible="true"
       lpeversion="1"
       pattern="M 0,5 C 0,2.24 2.24,0 5,0 7.76,0 10,2.24 10,5 10,7.76 7.76,10 5,10 2.24,10 0,7.76 0,5 Z"
       copytype="single_stretched"
       prop_scale="1"
       scale_y_rel="false"
       spacing="0"
       normal_offset="0"
       tang_offset="0"
       prop_units="false"
       vertical_pattern="false"
       hide_knot="false"
       fuse_tolerance="0" />
  </defs>
  <sodipodi:namedview
     id="base"
     pagecolor="#ffffff"
     bordercolor="#666666"
     borderopacity="1.0"
     inkscape:pageopacity="0.0"
     inkscape:pageshadow="2"
     inkscape:zoom="2.8"
     inkscape:cx="116.52469"
     inkscape:cy="357.32188"
     inkscape:document-units="mm"
     inkscape:current-layer="layer1"
     inkscape:document-rotation="0"
     showgrid="false"
     inkscape:window-width="2560"
     inkscape:window-height="1420"
     inkscape:window-x="0"
     inkscape:window-y="20"
     inkscape:window-maximized="1" />
  <metadata
     id="metadata5">
    <rdf:RDF>
      <cc:Work
         rdf:about="">
        <dc:format>image/svg+xml</dc:format>
        <dc:type
           rdf:resource="http://purl.org/dc/dcmitype/StillImage" />
        <dc:title></dc:title>
      </cc:Work>
    </rdf:RDF>
  </metadata>
  <g
     inkscape:label="Layer 1"
     inkscape:groupmode="layer"
     id="layer1">
    <path
       id="path835"
       style="opacity:1;fill:#000000;fill-opacity:1;stroke:#000000;stroke-width:0.965099;stroke-linecap:round;stroke-miterlimit:4;stroke-dasharray:none;stroke-dashoffset:0;stroke-opacity:1"
       d="m 205.91406,311.41602 c -23.03731,4.81807 -23.08327,1.30836 -32.82269,13.30562 -9.26149,11.40853 -4.44886,23.88986 -6.22809,35.47953 -2.84028,25.17299 5.71198,29.5844 15.44141,38.81055 2.16785,3.73556 -2.55086,13.09588 -2.27344,16.2207 -5.41896,6.77611 0.31618,22.95742 5.49666,28.93872 5.46412,6.30879 3.95064,8.96822 19.51897,9.99878 13.90484,-0.29612 18.61148,-8.15637 20.71025,-12.69359 3.14553,-6.80018 8.33383,-17.20986 4.30342,-26.24391 -1.94158,-9.27302 -3.60431,-10.84656 -1.875,-14.79492 10.65465,-9.09625 16.80306,-15.03174 17.02343,-40.23633 -1.38841,-22.39694 0.54254,-27.40945 -6.19259,-35.22559 -10.02787,-11.63738 -10.84454,-8.82994 -32.98123,-13.55956 0.11218,3.5583 -0.0807,-8e-5 -0.1211,0 z"
       transform="scale(0.26458333)"
       sodipodi:nodetypes="cscccscscccscc" />
    <path
       id="path855"
       style="fill:#000000;fill-opacity:1;stroke:#000000;stroke-width:0.264583px;stroke-linecap:butt;stroke-linejoin:miter;stroke-opacity:1"
       d="m 47.872456,113.71876 c -1.790128,1.91094 -3.580257,3.82187 -5.370385,5.73281 -1.27906,8.25063 -2.558121,16.50126 -3.837181,24.75189 2.191715,-8.00995 4.215311,-16.08118 6.511968,-24.05288 0.915839,-1.95872 1.831678,-3.91745 2.747517,-5.87617" />
    <path
       id="path857"
       style="fill:#000000;fill-opacity:1;stroke:#000000;stroke-width:0.264583px;stroke-linecap:butt;stroke-linejoin:miter;stroke-opacity:1"
       d="m 47.808155,108.42889 c -3.942993,1.46733 -7.885985,2.93467 -11.828978,4.402 -3.589038,6.2003 -7.178075,12.40061 -10.767113,18.60091 0.108931,1.86905 0.217861,3.73809 0.326792,5.60714 0.881606,-2.53645 1.283202,-5.28956 2.950401,-7.47143 2.698144,-4.32329 5.239074,-8.79618 8.03485,-13.02657 3.678586,-2.50138 7.357173,-5.00276 11.03576,-7.50414" />
    <path
       id="path859"
       style="fill:#000000;fill-opacity:1;stroke:#000000;stroke-width:0.264583px;stroke-linecap:butt;stroke-linejoin:miter;stroke-opacity:1"
       d="m 47.831719,105.32928 c -4.859985,-0.66659 -9.719969,-1.33317 -14.579954,-1.99976 -2.192229,-2.71872 -4.605182,-5.329124 -6.661414,-8.114574 -1.050175,-4.772292 -2.100349,-9.544585 -3.150524,-14.316877 1.847337,4.394611 3.989916,8.680225 5.186865,13.314948 0.200882,1.224877 0.774752,2.199228 1.86484,2.826852 1.434229,1.04312 2.670539,2.465618 4.226504,3.275391 4.046099,1.13572 8.092198,2.27143 12.138297,3.40715" />
    <path
       id="path861"
       style="fill:#000000;fill-opacity:1;stroke:#000000;stroke-width:0.264583px;stroke-linecap:butt;stroke-linejoin:miter;stroke-opacity:1"
       d="m 44.469719,97.879748 c -2.864829,-1.759704 -5.729658,-3.519408 -8.594487,-5.279112 -1.17145,-2.686473 -2.593664,-5.326234 -3.610874,-8.04144 0.269926,-3.415179 0.339472,-6.885797 0.734796,-10.266281 0.408946,-0.502938 1.393299,-3.415953 1.270283,-1.690781 0.02146,3.975935 0.165265,7.950011 0.242523,11.925099 1.318694,2.138768 2.459851,4.450306 3.888614,6.48196 1.865019,1.158281 3.730038,2.316561 5.595057,3.474842" />
    <path
       id="path855-3"
       style="fill:#000000;fill-opacity:1;stroke:#000000;stroke-width:0.264583px;stroke-linecap:butt;stroke-linejoin:miter;stroke-opacity:1"
       d="m 60.517173,114.07709 c 1.790128,1.91094 3.580257,3.82187 5.370385,5.73281 1.27906,8.25063 2.558121,16.50126 3.837181,24.75189 -2.191715,-8.00995 -4.215311,-16.08118 -6.511968,-24.05288 -0.915839,-1.95872 -1.831678,-3.91745 -2.747517,-5.87617" />
    <path
       id="path857-6"
       style="fill:#000000;fill-opacity:1;stroke:#000000;stroke-width:0.264583px;stroke-linecap:butt;stroke-linejoin:miter;stroke-opacity:1"
       d="m 60.818096,108.94697 c 3.942993,1.46733 7.885985,2.93467 11.828978,4.402 3.589038,6.2003 7.178075,12.40061 10.767113,18.60091 -0.108931,1.86905 -0.217861,3.73809 -0.326792,5.60714 -0.881606,-2.53645 -1.283202,-5.28956 -2.950401,-7.47143 -2.698144,-4.32329 -5.239074,-8.79618 -8.03485,-13.02657 -3.678586,-2.50138 -7.357173,-5.00276 -11.03576,-7.50414" />
    <path
       id="path859-7"
       style="fill:#000000;fill-opacity:1;stroke:#000000;stroke-width:0.264583px;stroke-linecap:butt;stroke-linejoin:miter;stroke-opacity:1"
       d="m 60.553434,106.21872 c 4.859985,-0.66659 9.719969,-1.33317 14.579954,-1.99976 2.192229,-2.71872 4.605182,-5.329135 6.661414,-8.114591 1.050175,-4.772291 2.100349,-9.544582 3.150524,-14.316873 -1.847337,4.39461 -3.989916,8.680223 -5.186865,13.314946 -0.200882,1.224876 -0.774753,2.199227 -1.86484,2.826851 -1.434228,1.043123 -2.670538,2.465617 -4.226504,3.275397 -4.046099,1.13572 -8.092198,2.27144 -12.138297,3.40716" />
    <path
       id="path861-5"
       style="fill:#000000;fill-opacity:1;stroke:#000000;stroke-width:0.264583px;stroke-linecap:butt;stroke-linejoin:miter;stroke-opacity:1"
       d="m 64.412966,98.962754 c 2.864829,-1.759708 5.729658,-3.519417 8.594487,-5.279125 1.17145,-2.686473 2.593664,-5.326233 3.610874,-8.041438 -0.269926,-3.415178 -0.339472,-6.885796 -0.734796,-10.26628 -0.408946,-0.502938 -1.393299,-3.415953 -1.270283,-1.690781 -0.02146,3.975935 -0.165265,7.950011 -0.242523,11.925099 -1.318694,2.138769 -2.459851,4.450308 -3.888614,6.481963 -1.865019,1.158279 -3.730038,2.316558 -5.595057,3.474837" />
    <path
       style="fill:#000000;stroke:#000000;stroke-width:0.264583px;stroke-linecap:butt;stroke-linejoin:miter;stroke-opacity:1;fill-opacity:1"
       d="m 50.062813,117.80929 c -1.313756,0.59658 -2.507477,2.747 -2.257482,3.83061 0.4242,1.04461 0.553759,2.04551 2.303066,2.43049 2.7814,0.45502 3.081455,-0.3007 1.717149,-0.42274 -1.085344,-0.19804 -1.170046,-0.26335 -1.656719,-0.63517 -0.449143,-0.31711 -0.946503,-0.82742 -1.0921,-1.1001 -0.260435,-0.9996 0.06931,-1.41145 0.506955,-2.01236 0.786521,-1.0956 0.897545,-0.72817 1.340171,-1.07895 z"
       id="path895"
       sodipodi:nodetypes="ccccccccc" />
    <path
       style="fill:#000000;stroke:#000000;stroke-width:0.264583px;stroke-linecap:butt;stroke-linejoin:miter;stroke-opacity:1;fill-opacity:1"
       d="m 58.140754,118.31678 c 0.880555,0.79713 2.00412,1.82255 2.242747,2.95843 -0.245581,1.04539 -0.93283,1.95601 -1.942314,2.73762 -0.752913,0.91174 -2.91528,0.50243 -2.451258,0.16902 0.694581,-0.31152 1.347294,-0.66656 1.827579,-1.44209 l 1.165877,-1.51982 c -0.429647,-0.93595 -1.262975,-1.30795 -1.928938,-1.91376 z"
       id="path897"
       sodipodi:nodetypes="cccccccc" />
  </g>
</svg>
